<?xml version="1.0" encoding="utf-8" standalone="no"?>
<!DOCTYPE svg PUBLIC "-//W3C//DTD SVG 1.1//EN"
  "http://www.w3.org/Graphics/SVG/1.1/DTD/svg11.dtd">
<svg xmlns:xlink="http://www.w3.org/1999/xlink" width="576pt" height="316.8pt" viewBox="0 0 576 316.8" xmlns="http://www.w3.org/2000/svg" version="1.1">
 <metadata>
  <rdf:RDF xmlns:dc="http://purl.org/dc/elements/1.1/" xmlns:cc="http://creativecommons.org/ns#" xmlns:rdf="http://www.w3.org/1999/02/22-rdf-syntax-ns#">
   <cc:Work>
    <dc:type rdf:resource="http://purl.org/dc/dcmitype/StillImage"/>
    <dc:date>2026-10-05T06:13:23.392461</dc:date>
    <dc:format>image/svg+xml</dc:format>
    <dc:creator>
     <cc:Agent>
      <dc:title>Matplotlib v3.11.2, https://matplotlib.org/</dc:title>
     </cc:Agent>
    </dc:creator>
   </cc:Work>
  </rdf:RDF>
 </metadata>
 <defs>
  <style type="text/css">*{stroke-linejoin: round; stroke-linecap: butt}</style>
 </defs>
 <g id="figure_1">
  <g id="patch_1">
   <path d="M 0 316.8 
L 576 316.8 
L 576 0 
L 0 0 
L 0 316.8 
z
" style="fill: none"/>
  </g>
  <g id="axes_1">
   <g id="patch_2">
    <path d="M 47.75 271.58 
L 565.2 271.58 
L 565.2 10.8 
L 47.75 10.8 
L 47.75 271.58 
z
" style="fill: none"/>
   </g>
   <g id="patch_3">
    <path d="M 71.270455 271.58 
L 133.530481 271.58 
L 133.530481 149.039399 
L 71.270455 149.039399 
z
" clip-path="url(#p9ca8274056)" style="fill: #3b4cca"/>
   </g>
   <g id="patch_4">
    <path d="M 244.214973 271.58 
L 306.475 271.58 
L 306.475 91.404727 
L 244.214973 91.404727 
z
" clip-path="url(#p9ca8274056)" style="fill: #3b4cca"/>
   </g>
   <g id="patch_5">
    <path d="M 417.159492 271.58 
L 479.419519 271.58 
L 479.419519 62.956 
L 417.159492 62.956 
z
" clip-path="url(#p9ca8274056)" style="fill: #3b4cca"/>
   </g>
   <g id="patch_6">
    <path d="M 133.530481 271.58 
L 195.790508 271.58 
L 195.790508 189.341763 
L 133.530481 189.341763 
z
" clip-path="url(#p9ca8274056)" style="fill: #b7b4ac"/>
   </g>
   <g id="patch_7">
    <path d="M 306.475 271.58 
L 368.735027 271.58 
L 368.735027 157.785091 
L 306.475 157.785091 
z
" clip-path="url(#p9ca8274056)" style="fill: #b7b4ac"/>
   </g>
   <g id="patch_8">
    <path d="M 479.419519 271.58 
L 541.679545 271.58 
L 541.679545 110.370545 
L 479.419519 110.370545 
z
" clip-path="url(#p9ca8274056)" style="fill: #b7b4ac"/>
   </g>
   <g id="matplotlib.axis_1">
    <g id="xtick_1">
     <g id="line2d_1">
      <defs>
       <path id="m6dccea14fe" d="M 0 0 
L 0 3.5 
" style="stroke: #1a1a1a; stroke-width: 0.8"/>
      </defs>
      <g>
       <use xlink:href="#m6dccea14fe" x="133.530481" y="271.58" style="fill: #1a1a1a; stroke: #1a1a1a; stroke-width: 0.8"/>
      </g>
     </g>
     <g id="text_1">
      <!-- LOO-client -->
      <g style="fill: #1a1a1a" transform="translate(107.895325 288.94) scale(0.1 -0.1)">
       <defs>
        <path id="SourceSerif4-Regular-d" d="M 256 0 
L 256 339 
L 1114 384 
L 1197 384 
L 1197 0 
L 256 0 
z
M 883 0 
Q 890 333 890 665 
Q 890 998 890 1328 
Q 890 1658 890 1990 
L 890 2304 
Q 890 2637 890 2969 
Q 890 3302 890 3632 
Q 890 3962 883 4288 
L 1549 4288 
Q 1549 3962 1545 3629 
Q 1542 3296 1542 2966 
Q 1542 2637 1542 2304 
L 1542 1926 
Q 1542 1626 1542 1306 
Q 1542 986 1545 659 
Q 1549 333 1549 0 
L 883 0 
z
M 1197 0 
L 1197 365 
L 3341 365 
L 3072 147 
L 3315 1267 
L 3712 1267 
L 3654 0 
L 1197 0 
z
M 256 3955 
L 256 4288 
L 2227 4288 
L 2227 3955 
L 1318 3904 
L 1114 3904 
L 256 3955 
z
" transform="scale(0.015625)"/>
        <path id="SourceSerif4-Regular-10" d="M 2362 -96 
Q 1939 -96 1564 54 
Q 1190 205 905 489 
Q 621 774 464 1190 
Q 307 1606 307 2138 
Q 307 2656 467 3072 
Q 627 3488 908 3779 
Q 1190 4070 1564 4230 
Q 1939 4390 2362 4390 
Q 2790 4390 3161 4240 
Q 3533 4090 3814 3802 
Q 4096 3514 4256 3104 
Q 4416 2694 4416 2163 
Q 4416 1645 4259 1229 
Q 4102 813 3817 515 
Q 3533 218 3161 61 
Q 2790 -96 2362 -96 
z
M 2362 269 
Q 2707 269 2960 419 
Q 3213 570 3379 832 
Q 3546 1094 3626 1433 
Q 3706 1773 3706 2150 
Q 3706 2528 3626 2864 
Q 3546 3200 3379 3462 
Q 3213 3725 2960 3875 
Q 2707 4026 2362 4026 
Q 2022 4026 1766 3875 
Q 1510 3725 1344 3462 
Q 1178 3200 1094 2864 
Q 1011 2528 1011 2150 
Q 1011 1773 1094 1433 
Q 1178 1094 1344 832 
Q 1510 570 1766 419 
Q 2022 269 2362 269 
z
" transform="scale(0.015625)"/>
        <path id="SourceSerif4-Regular-b2" d="M 256 1414 
L 256 1882 
L 1792 1882 
L 1792 1414 
L 256 1414 
z
" transform="scale(0.015625)"/>
        <path id="SourceSerif4-Regular-1e" d="M 1830 -77 
Q 1357 -77 1011 121 
Q 666 320 483 681 
Q 301 1043 301 1536 
Q 301 2048 505 2425 
Q 710 2803 1062 3014 
Q 1414 3226 1843 3226 
Q 2195 3226 2454 3120 
Q 2714 3014 2877 2838 
Q 3040 2662 3091 2451 
Q 3066 2317 2989 2233 
Q 2912 2150 2771 2150 
Q 2605 2150 2521 2249 
Q 2438 2349 2394 2483 
L 2214 3072 
L 2586 2746 
Q 2438 2816 2275 2857 
Q 2112 2899 1907 2899 
Q 1613 2899 1389 2745 
Q 1165 2592 1040 2301 
Q 915 2010 915 1600 
Q 915 1190 1049 915 
Q 1184 640 1417 502 
Q 1651 365 1952 365 
Q 2163 365 2326 422 
Q 2490 480 2624 579 
Q 2758 678 2874 813 
L 3091 614 
Q 2976 422 2813 265 
Q 2650 109 2413 16 
Q 2176 -77 1830 -77 
z
" transform="scale(0.015625)"/>
        <path id="SourceSerif4-Regular-27" d="M 237 0 
L 237 307 
L 966 371 
L 1139 371 
L 1875 307 
L 1875 0 
L 237 0 
z
M 755 0 
Q 762 230 762 460 
Q 762 691 765 921 
Q 768 1152 768 1376 
L 768 4122 
L 211 4218 
L 211 4486 
L 1184 4704 
L 1357 4678 
L 1344 3866 
L 1344 1376 
Q 1344 1152 1344 921 
Q 1344 691 1347 460 
Q 1350 230 1350 0 
L 755 0 
z
" transform="scale(0.015625)"/>
        <path id="SourceSerif4-Regular-24" d="M 269 0 
L 269 307 
L 986 371 
L 1165 371 
L 1856 307 
L 1856 0 
L 269 0 
z
M 768 0 
Q 774 192 774 429 
Q 774 666 777 915 
Q 781 1165 781 1376 
L 781 1709 
Q 781 1952 777 2150 
Q 774 2349 768 2560 
L 237 2586 
L 237 2867 
L 1190 3187 
L 1370 3155 
L 1357 2374 
L 1357 1376 
Q 1357 1165 1360 915 
Q 1363 666 1363 429 
Q 1363 192 1370 0 
L 768 0 
z
M 1050 3834 
Q 870 3834 745 3955 
Q 621 4077 621 4256 
Q 621 4435 745 4556 
Q 870 4678 1050 4678 
Q 1235 4678 1360 4556 
Q 1485 4435 1485 4256 
Q 1485 4077 1360 3955 
Q 1235 3834 1050 3834 
z
" transform="scale(0.015625)"/>
        <path id="SourceSerif4-Regular-20" d="M 1830 -77 
Q 1350 -77 1008 118 
Q 666 314 483 675 
Q 301 1037 301 1530 
Q 301 2029 493 2409 
Q 685 2790 1024 3008 
Q 1363 3226 1798 3226 
Q 2189 3226 2477 3075 
Q 2765 2925 2928 2643 
Q 3091 2362 3091 1971 
Q 3091 1850 3075 1731 
Q 3059 1613 3040 1536 
L 640 1536 
L 640 1837 
L 2317 1837 
Q 2451 1882 2489 1965 
Q 2528 2048 2528 2157 
Q 2528 2406 2441 2569 
Q 2355 2733 2192 2813 
Q 2029 2893 1798 2893 
Q 1555 2893 1350 2758 
Q 1146 2624 1024 2339 
Q 902 2054 902 1594 
Q 902 1203 1033 924 
Q 1165 646 1405 499 
Q 1645 352 1965 352 
Q 2304 352 2531 477 
Q 2758 602 2938 806 
L 3136 646 
Q 2995 435 2822 268 
Q 2650 102 2413 12 
Q 2176 -77 1830 -77 
z
" transform="scale(0.015625)"/>
        <path id="SourceSerif4-Regular-29" d="M 269 0 
L 269 307 
L 992 371 
L 1165 371 
L 1843 307 
L 1843 0 
L 269 0 
z
M 774 0 
Q 774 192 777 429 
Q 781 666 781 915 
Q 781 1165 781 1376 
L 781 1709 
Q 781 1875 781 2016 
Q 781 2157 777 2288 
Q 774 2419 774 2560 
L 237 2586 
L 237 2867 
L 1069 3187 
L 1248 3155 
L 1338 2464 
L 1363 2464 
L 1363 1376 
Q 1363 1165 1363 915 
Q 1363 666 1366 429 
Q 1370 192 1370 0 
L 774 0 
z
M 2355 0 
L 2355 307 
L 3066 371 
L 3238 371 
L 3930 307 
L 3930 0 
L 2355 0 
z
M 2848 0 
Q 2848 192 2851 429 
Q 2854 666 2854 912 
Q 2854 1158 2854 1376 
L 2854 1997 
Q 2854 2400 2723 2563 
Q 2592 2726 2298 2726 
Q 2131 2726 1964 2678 
Q 1798 2630 1628 2531 
Q 1459 2432 1280 2291 
L 1235 2566 
L 1389 2566 
Q 1523 2752 1696 2899 
Q 1869 3046 2080 3136 
Q 2291 3226 2522 3226 
Q 2982 3226 3206 2947 
Q 3430 2669 3430 2099 
L 3430 1376 
Q 3430 1158 3433 912 
Q 3437 666 3437 429 
Q 3437 192 3443 0 
L 2848 0 
z
" transform="scale(0.015625)"/>
        <path id="SourceSerif4-Regular-2f" d="M 979 2778 
L 979 3149 
L 2157 3149 
L 2157 2778 
L 979 2778 
z
M 1478 -64 
Q 1120 -64 899 134 
Q 678 333 678 749 
Q 678 864 678 976 
Q 678 1088 678 1235 
L 678 2778 
L 122 2778 
L 122 3078 
L 941 3181 
L 704 2982 
L 909 4032 
L 1306 4032 
L 1235 2931 
L 1261 2867 
L 1261 806 
Q 1261 550 1366 441 
Q 1472 333 1658 333 
Q 1779 333 1881 371 
Q 1984 410 2080 461 
L 2227 218 
Q 2157 147 2048 80 
Q 1939 13 1795 -25 
Q 1651 -64 1478 -64 
z
" transform="scale(0.015625)"/>
       </defs>
       <use xlink:href="#SourceSerif4-Regular-d"/>
       <use xlink:href="#SourceSerif4-Regular-10" transform="translate(59.796875 0)"/>
       <use xlink:href="#SourceSerif4-Regular-10" transform="translate(134.59375 0)"/>
       <use xlink:href="#SourceSerif4-Regular-b2" transform="translate(209.890625 0)"/>
       <use xlink:href="#SourceSerif4-Regular-1e" transform="translate(242.890625 0)"/>
       <use xlink:href="#SourceSerif4-Regular-27" transform="translate(293.890625 0)"/>
       <use xlink:href="#SourceSerif4-Regular-24" transform="translate(326.796875 0)"/>
       <use xlink:href="#SourceSerif4-Regular-20" transform="translate(359.703125 0)"/>
       <use xlink:href="#SourceSerif4-Regular-29" transform="translate(413 0)"/>
       <use xlink:href="#SourceSerif4-Regular-2f" transform="translate(476.796875 0)"/>
      </g>
     </g>
    </g>
    <g id="xtick_2">
     <g id="line2d_2">
      <g>
       <use xlink:href="#m6dccea14fe" x="306.475" y="271.58" style="fill: #1a1a1a; stroke: #1a1a1a; stroke-width: 0.8"/>
      </g>
     </g>
     <g id="text_2">
      <!-- Single holdout -->
      <g style="fill: #1a1a1a" transform="translate(272.117969 288.94) scale(0.1 -0.1)">
       <defs>
        <path id="SourceSerif4-Regular-14" d="M 1587 -96 
Q 1158 -96 806 13 
Q 454 122 256 237 
L 275 1184 
L 678 1184 
L 864 218 
L 448 307 
L 448 666 
Q 634 538 800 448 
Q 966 358 1152 310 
Q 1338 262 1574 262 
Q 1907 262 2128 358 
Q 2349 454 2461 627 
Q 2573 800 2573 1018 
Q 2573 1222 2489 1360 
Q 2406 1498 2233 1606 
Q 2061 1715 1779 1818 
L 1542 1914 
Q 1197 2048 925 2217 
Q 653 2387 496 2627 
Q 339 2867 339 3219 
Q 339 3590 531 3849 
Q 723 4109 1059 4249 
Q 1395 4390 1824 4390 
Q 2195 4390 2489 4291 
Q 2784 4192 2950 4070 
L 2931 3181 
L 2534 3181 
L 2342 4134 
L 2752 4026 
L 2752 3661 
Q 2528 3846 2307 3939 
Q 2086 4032 1805 4032 
Q 1536 4032 1344 3945 
Q 1152 3859 1046 3702 
Q 941 3546 941 3334 
Q 941 3142 1024 3004 
Q 1107 2867 1273 2758 
Q 1440 2650 1696 2547 
L 1939 2458 
Q 2330 2304 2608 2131 
Q 2886 1958 3030 1718 
Q 3174 1478 3174 1133 
Q 3174 755 2976 480 
Q 2778 205 2422 54 
Q 2067 -96 1587 -96 
z
" transform="scale(0.015625)"/>
        <path id="SourceSerif4-Regular-22" d="M 1600 -1510 
Q 1152 -1510 845 -1408 
Q 538 -1306 378 -1126 
Q 218 -947 218 -717 
Q 218 -538 307 -397 
Q 397 -256 595 -141 
Q 794 -26 1114 70 
L 1158 26 
Q 1037 -64 953 -166 
Q 870 -269 828 -377 
Q 787 -486 787 -614 
Q 787 -781 880 -909 
Q 973 -1037 1168 -1107 
Q 1363 -1178 1670 -1178 
Q 2029 -1178 2272 -1085 
Q 2515 -992 2640 -841 
Q 2765 -691 2765 -518 
Q 2765 -307 2614 -176 
Q 2464 -45 2138 -45 
L 1312 -45 
Q 1216 -45 1117 -41 
Q 1018 -38 928 -32 
L 928 70 
Q 691 115 544 227 
Q 397 339 397 557 
Q 397 749 534 896 
Q 672 1043 934 1184 
L 934 1325 
L 1261 1274 
Q 1088 1126 1005 1017 
Q 922 909 922 781 
Q 922 621 1034 537 
Q 1146 454 1402 454 
L 2234 454 
Q 2586 454 2822 348 
Q 3059 243 3177 54 
Q 3296 -134 3296 -384 
Q 3296 -608 3174 -813 
Q 3053 -1018 2829 -1174 
Q 2605 -1331 2291 -1420 
Q 1978 -1510 1600 -1510 
z
M 1600 1075 
Q 1242 1075 963 1203 
Q 685 1331 528 1571 
Q 371 1811 371 2144 
Q 371 2477 528 2720 
Q 685 2963 963 3094 
Q 1242 3226 1600 3226 
Q 1837 3226 2029 3168 
Q 2221 3110 2361 3011 
Q 2502 2912 2586 2778 
L 2630 2771 
Q 2726 2650 2777 2502 
Q 2829 2355 2829 2157 
Q 2829 1830 2672 1587 
Q 2515 1344 2236 1209 
Q 1958 1075 1600 1075 
z
M 1594 1382 
Q 1798 1382 1948 1481 
Q 2099 1581 2182 1753 
Q 2266 1926 2266 2163 
Q 2266 2394 2186 2563 
Q 2106 2733 1955 2825 
Q 1805 2918 1606 2918 
Q 1402 2918 1251 2822 
Q 1101 2726 1017 2553 
Q 934 2381 934 2150 
Q 934 1920 1014 1747 
Q 1094 1574 1241 1478 
Q 1389 1382 1594 1382 
z
M 2406 2662 
L 2406 2848 
L 2566 2848 
L 3174 3251 
L 3379 3219 
L 3379 2662 
L 2406 2662 
z
" transform="scale(0.015625)"/>
        <path id="SourceSerif4-Regular-1" transform="scale(0.015625)"/>
        <path id="SourceSerif4-Regular-23" d="M 250 0 
L 250 307 
L 973 371 
L 1146 371 
L 1837 307 
L 1837 0 
L 250 0 
z
M 755 0 
Q 762 192 762 429 
Q 762 666 765 915 
Q 768 1165 768 1376 
L 768 4122 
L 211 4218 
L 211 4486 
L 1171 4704 
L 1344 4678 
L 1331 3866 
L 1325 2483 
L 1344 2438 
L 1344 1376 
Q 1344 1165 1344 915 
Q 1344 666 1347 429 
Q 1350 192 1350 0 
L 755 0 
z
M 2355 0 
L 2355 307 
L 3059 371 
L 3238 371 
L 3930 307 
L 3930 0 
L 2355 0 
z
M 2842 0 
Q 2842 192 2845 429 
Q 2848 666 2848 912 
Q 2848 1158 2848 1376 
L 2848 1997 
Q 2848 2400 2717 2563 
Q 2586 2726 2291 2726 
Q 2125 2726 1958 2678 
Q 1792 2630 1622 2531 
Q 1453 2432 1274 2285 
L 1216 2560 
L 1408 2560 
Q 1530 2746 1699 2896 
Q 1869 3046 2077 3136 
Q 2285 3226 2522 3226 
Q 2976 3226 3203 2947 
Q 3430 2669 3430 2099 
L 3430 1376 
Q 3430 1158 3430 912 
Q 3430 666 3433 429 
Q 3437 192 3437 0 
L 2842 0 
z
" transform="scale(0.015625)"/>
        <path id="SourceSerif4-Regular-2a" d="M 1850 -77 
Q 1446 -77 1091 108 
Q 736 294 518 662 
Q 301 1030 301 1562 
Q 301 2093 518 2467 
Q 736 2842 1091 3034 
Q 1446 3226 1850 3226 
Q 2253 3226 2608 3037 
Q 2963 2848 3184 2480 
Q 3405 2112 3405 1581 
Q 3405 1050 3184 678 
Q 2963 307 2608 115 
Q 2253 -77 1850 -77 
z
M 1850 256 
Q 2144 256 2349 403 
Q 2554 550 2662 838 
Q 2771 1126 2771 1562 
Q 2771 2003 2662 2297 
Q 2554 2592 2349 2739 
Q 2144 2886 1850 2886 
Q 1562 2886 1357 2739 
Q 1152 2592 1043 2301 
Q 934 2010 934 1574 
Q 934 1133 1043 841 
Q 1152 550 1357 403 
Q 1562 256 1850 256 
z
" transform="scale(0.015625)"/>
        <path id="SourceSerif4-Regular-1f" d="M 1632 -77 
Q 1242 -77 941 118 
Q 640 314 470 678 
Q 301 1043 301 1555 
Q 301 2074 480 2448 
Q 659 2822 966 3024 
Q 1274 3226 1658 3226 
Q 1882 3226 2048 3158 
Q 2214 3091 2345 2960 
Q 2477 2829 2592 2650 
L 2822 2650 
L 2790 2214 
Q 2515 2528 2294 2678 
Q 2074 2829 1811 2829 
Q 1562 2829 1360 2697 
Q 1158 2566 1040 2288 
Q 922 2010 922 1574 
Q 922 1146 1037 870 
Q 1152 595 1353 464 
Q 1555 333 1811 333 
Q 2106 333 2323 493 
Q 2541 653 2784 979 
L 2810 544 
L 2592 544 
Q 2490 365 2362 224 
Q 2234 83 2058 3 
Q 1882 -77 1632 -77 
z
M 2688 -45 
L 2630 640 
L 2618 646 
L 2618 2515 
L 2650 2560 
L 2630 4122 
L 2061 4218 
L 2061 4486 
L 3034 4704 
L 3206 4678 
L 3194 3866 
L 3194 384 
L 3725 294 
L 3725 0 
L 2688 -45 
z
" transform="scale(0.015625)"/>
        <path id="SourceSerif4-Regular-30" d="M 1562 -77 
Q 1114 -77 877 192 
Q 640 461 646 1037 
L 653 2867 
L 851 2650 
L 134 2790 
L 134 3059 
L 1075 3168 
L 1235 3136 
L 1222 2362 
L 1222 1139 
Q 1222 749 1356 582 
Q 1491 416 1773 416 
Q 1939 416 2115 470 
Q 2291 525 2464 630 
Q 2637 736 2803 877 
L 2854 589 
L 2675 589 
Q 2541 384 2368 233 
Q 2195 83 1993 3 
Q 1792 -77 1562 -77 
z
M 2810 -51 
L 2746 672 
L 2720 678 
L 2726 2694 
L 2208 2790 
L 2208 3059 
L 3142 3168 
L 3302 3136 
L 3296 2362 
L 3296 378 
L 3795 282 
L 3795 0 
L 2810 -51 
z
" transform="scale(0.015625)"/>
       </defs>
       <use xlink:href="#SourceSerif4-Regular-14"/>
       <use xlink:href="#SourceSerif4-Regular-24" transform="translate(54.40625 0)"/>
       <use xlink:href="#SourceSerif4-Regular-29" transform="translate(87.3125 0)"/>
       <use xlink:href="#SourceSerif4-Regular-22" transform="translate(151.609375 0)"/>
       <use xlink:href="#SourceSerif4-Regular-27" transform="translate(205.8125 0)"/>
       <use xlink:href="#SourceSerif4-Regular-20" transform="translate(238.71875 0)"/>
       <use xlink:href="#SourceSerif4-Regular-1" transform="translate(292.015625 0)"/>
       <use xlink:href="#SourceSerif4-Regular-23" transform="translate(315.71875 0)"/>
       <use xlink:href="#SourceSerif4-Regular-2a" transform="translate(379.8125 0)"/>
       <use xlink:href="#SourceSerif4-Regular-27" transform="translate(436.71875 0)"/>
       <use xlink:href="#SourceSerif4-Regular-1f" transform="translate(469.625 0)"/>
       <use xlink:href="#SourceSerif4-Regular-2a" transform="translate(531.03125 0)"/>
       <use xlink:href="#SourceSerif4-Regular-30" transform="translate(588.4375 0)"/>
       <use xlink:href="#SourceSerif4-Regular-2f" transform="translate(651.234375 0)"/>
      </g>
      <!-- (22/6) -->
      <g style="fill: #1a1a1a" transform="translate(293.214062 302.65) scale(0.1 -0.1)">
       <defs>
        <path id="SourceSerif4-Regular-b8" d="M 1094 1786 
Q 1094 1274 1190 822 
Q 1286 371 1497 -83 
Q 1709 -538 2061 -1050 
L 1850 -1229 
Q 1421 -813 1123 -342 
Q 826 128 672 659 
Q 518 1190 518 1786 
Q 518 2387 672 2918 
Q 826 3450 1123 3917 
Q 1421 4384 1850 4800 
L 2061 4627 
Q 1709 4109 1497 3654 
Q 1286 3200 1190 2749 
Q 1094 2298 1094 1786 
z
" transform="scale(0.015625)"/>
        <path id="SourceSerif4-Regular-89" d="M 352 0 
L 352 454 
Q 614 685 860 921 
Q 1107 1158 1338 1382 
Q 1677 1722 1894 2006 
Q 2112 2291 2217 2553 
Q 2323 2816 2323 3066 
Q 2323 3456 2099 3686 
Q 1875 3917 1485 3917 
Q 1325 3917 1168 3894 
Q 1011 3872 858 3821 
L 1203 4026 
L 1062 3488 
Q 1024 3334 966 3228 
Q 909 3123 832 3072 
Q 755 3021 646 3021 
Q 493 3021 413 3101 
Q 333 3181 294 3270 
Q 346 3565 531 3779 
Q 717 3994 1005 4109 
Q 1293 4224 1645 4224 
Q 2054 4224 2348 4096 
Q 2643 3968 2800 3718 
Q 2957 3469 2957 3117 
Q 2957 2829 2835 2563 
Q 2714 2298 2435 1987 
Q 2157 1677 1677 1254 
Q 1542 1139 1385 1014 
Q 1229 890 1059 762 
Q 890 634 717 506 
L 800 710 
L 800 550 
L 3104 550 
L 3104 0 
L 352 0 
z
" transform="scale(0.015625)"/>
        <path id="SourceSerif4-Regular-be" d="M 32 -1024 
L 1734 4544 
L 2150 4544 
L 448 -1024 
L 32 -1024 
z
" transform="scale(0.015625)"/>
        <path id="SourceSerif4-Regular-8d" d="M 1715 -77 
Q 1292 -77 962 115 
Q 633 307 444 700 
Q 256 1094 256 1683 
Q 256 2163 428 2595 
Q 601 3027 934 3369 
Q 1267 3712 1750 3936 
Q 2233 4160 2854 4224 
L 2918 3974 
Q 2368 3853 1980 3635 
Q 1593 3418 1350 3120 
Q 1107 2822 995 2457 
Q 883 2093 883 1670 
Q 883 1152 988 838 
Q 1094 525 1283 381 
Q 1472 237 1708 237 
Q 1964 237 2143 358 
Q 2323 480 2422 707 
Q 2521 934 2521 1248 
Q 2521 1683 2306 1904 
Q 2092 2125 1728 2125 
Q 1478 2125 1244 2045 
Q 1011 1965 812 1760 
L 716 1990 
L 838 1965 
Q 1036 2253 1308 2403 
Q 1580 2554 1939 2554 
Q 2304 2554 2569 2394 
Q 2835 2234 2979 1949 
Q 3123 1664 3123 1280 
Q 3123 973 3011 723 
Q 2899 474 2703 294 
Q 2508 115 2255 19 
Q 2003 -77 1715 -77 
z
" transform="scale(0.015625)"/>
        <path id="SourceSerif4-Regular-b9" d="M 1223 1785 
Q 1223 2297 1127 2748 
Q 1031 3200 819 3654 
Q 608 4109 256 4621 
L 467 4800 
Q 896 4384 1193 3913 
Q 1491 3443 1645 2912 
Q 1799 2381 1799 1785 
Q 1799 1184 1645 652 
Q 1491 121 1193 -346 
Q 896 -813 467 -1229 
L 256 -1056 
Q 608 -538 819 -83 
Q 1031 371 1127 822 
Q 1223 1273 1223 1785 
z
" transform="scale(0.015625)"/>
       </defs>
       <use xlink:href="#SourceSerif4-Regular-b8"/>
       <use xlink:href="#SourceSerif4-Regular-89" transform="translate(36.203125 0)"/>
       <use xlink:href="#SourceSerif4-Regular-89" transform="translate(89.109375 0)"/>
       <use xlink:href="#SourceSerif4-Regular-be" transform="translate(142.015625 0)"/>
       <use xlink:href="#SourceSerif4-Regular-8d" transform="translate(176.109375 0)"/>
       <use xlink:href="#SourceSerif4-Regular-b9" transform="translate(229.015625 0)"/>
      </g>
     </g>
    </g>
    <g id="xtick_3">
     <g id="line2d_3">
      <g>
       <use xlink:href="#m6dccea14fe" x="479.419519" y="271.58" style="fill: #1a1a1a; stroke: #1a1a1a; stroke-width: 0.8"/>
      </g>
     </g>
     <g id="text_3">
      <!-- Time-aware -->
      <g style="fill: #1a1a1a" transform="translate(451.215612 288.94) scale(0.1 -0.1)">
       <defs>
        <path id="SourceSerif4-Regular-15" d="M 998 0 
L 998 339 
L 1920 384 
L 2131 384 
L 3053 339 
L 3053 0 
L 998 0 
z
M 1690 0 
Q 1696 333 1699 662 
Q 1702 992 1702 1325 
Q 1702 1658 1702 1990 
L 1702 2304 
Q 1702 2630 1702 2963 
Q 1702 3296 1699 3629 
Q 1696 3962 1690 4288 
L 2355 4288 
Q 2355 3962 2352 3632 
Q 2349 3302 2349 2969 
Q 2349 2637 2349 2304 
L 2349 1990 
Q 2349 1664 2349 1328 
Q 2349 992 2352 662 
Q 2355 333 2355 0 
L 1690 0 
z
M 128 3110 
L 179 4288 
L 3866 4288 
L 3917 3110 
L 3526 3110 
L 3302 4211 
L 3603 3923 
L 448 3923 
L 749 4211 
L 518 3110 
L 128 3110 
z
" transform="scale(0.015625)"/>
        <path id="SourceSerif4-Regular-28" d="M 269 0 
L 269 307 
L 992 371 
L 1165 371 
L 1843 307 
L 1843 0 
L 269 0 
z
M 774 0 
Q 774 192 777 429 
Q 781 666 781 915 
Q 781 1165 781 1376 
L 781 1709 
Q 781 1875 781 2016 
Q 781 2157 777 2288 
Q 774 2419 774 2560 
L 237 2586 
L 237 2867 
L 1069 3187 
L 1248 3155 
L 1338 2464 
L 1363 2458 
L 1363 1376 
Q 1363 1165 1363 915 
Q 1363 666 1366 429 
Q 1370 192 1370 0 
L 774 0 
z
M 2317 0 
L 2317 307 
L 3027 371 
L 3200 371 
L 3891 307 
L 3891 0 
L 2317 0 
z
M 2810 0 
Q 2810 192 2813 429 
Q 2816 666 2816 912 
Q 2816 1158 2816 1376 
L 2816 1997 
Q 2816 2394 2691 2560 
Q 2566 2726 2272 2726 
Q 2112 2726 1949 2678 
Q 1786 2630 1619 2531 
Q 1453 2432 1280 2291 
L 1229 2554 
L 1382 2554 
Q 1510 2739 1680 2892 
Q 1850 3046 2058 3136 
Q 2266 3226 2496 3226 
Q 2950 3226 3171 2947 
Q 3392 2669 3392 2099 
L 3392 1376 
Q 3392 1158 3395 912 
Q 3398 666 3398 429 
Q 3398 192 3405 0 
L 2810 0 
z
M 4352 0 
L 4352 307 
L 5062 371 
L 5235 371 
L 5926 307 
L 5926 0 
L 4352 0 
z
M 4845 0 
Q 4845 192 4848 429 
Q 4851 666 4851 912 
Q 4851 1158 4851 1376 
L 4851 2003 
Q 4851 2406 4723 2566 
Q 4595 2726 4301 2726 
Q 4147 2726 3987 2678 
Q 3827 2630 3660 2534 
Q 3494 2438 3315 2291 
L 3251 2547 
L 3405 2547 
Q 3539 2752 3712 2905 
Q 3885 3059 4089 3142 
Q 4294 3226 4531 3226 
Q 4973 3226 5200 2957 
Q 5427 2688 5427 2131 
L 5427 1376 
Q 5427 1158 5430 912 
Q 5434 666 5434 429 
Q 5434 192 5440 0 
L 4845 0 
z
" transform="scale(0.015625)"/>
        <path id="SourceSerif4-Regular-1c" d="M 1184 -90 
Q 819 -90 560 121 
Q 301 333 301 742 
Q 301 979 400 1158 
Q 499 1338 726 1478 
Q 954 1619 1344 1728 
Q 1530 1786 1712 1834 
Q 1894 1882 2076 1933 
Q 2259 1984 2438 2035 
L 2438 1773 
Q 2208 1702 1977 1628 
Q 1747 1555 1517 1478 
Q 1254 1402 1120 1302 
Q 986 1203 938 1091 
Q 890 979 890 851 
Q 890 614 1037 483 
Q 1184 352 1427 352 
Q 1587 352 1715 409 
Q 1843 467 1990 585 
Q 2138 704 2336 877 
L 2381 512 
L 2157 512 
Q 2029 346 1897 208 
Q 1766 70 1596 -10 
Q 1427 -90 1184 -90 
z
M 2842 -70 
Q 2566 -70 2396 109 
Q 2227 288 2214 640 
L 2202 653 
L 2202 2118 
Q 2202 2413 2131 2585 
Q 2061 2758 1910 2828 
Q 1760 2899 1530 2899 
Q 1370 2899 1222 2873 
Q 1075 2848 915 2778 
L 1171 3034 
L 1069 2458 
Q 1037 2266 947 2176 
Q 858 2086 710 2086 
Q 557 2086 477 2166 
Q 397 2246 378 2355 
Q 461 2752 813 2989 
Q 1165 3226 1696 3226 
Q 2029 3226 2272 3117 
Q 2515 3008 2646 2768 
Q 2778 2528 2778 2118 
L 2778 698 
Q 2778 499 2848 412 
Q 2918 326 3046 326 
Q 3130 326 3190 355 
Q 3251 384 3302 422 
L 3405 198 
Q 3309 77 3171 3 
Q 3034 -70 2842 -70 
z
" transform="scale(0.015625)"/>
        <path id="SourceSerif4-Regular-32" d="M 1427 -19 
L 358 3149 
L 1005 3149 
L 1811 467 
L 1773 467 
L 1914 1120 
L 2618 3149 
L 2957 3149 
L 3821 467 
L 3789 467 
L 3923 1152 
L 4538 3149 
L 4973 3149 
L 3866 -19 
L 3443 -19 
L 2650 2432 
L 2688 2432 
L 2573 1901 
L 1882 -19 
L 1427 -19 
z
M 77 2842 
L 77 3149 
L 1613 3149 
L 1613 2842 
L 909 2765 
L 710 2765 
L 77 2842 
z
M 2035 2842 
L 2035 3149 
L 3546 3149 
L 3546 2842 
L 2963 2778 
L 2650 2778 
L 2035 2842 
z
M 3968 2842 
L 3968 3149 
L 5242 3149 
L 5242 2842 
L 4749 2765 
L 4557 2765 
L 3968 2842 
z
" transform="scale(0.015625)"/>
        <path id="SourceSerif4-Regular-2d" d="M 288 0 
L 288 307 
L 1011 371 
L 1190 371 
L 2003 307 
L 2003 0 
L 288 0 
z
M 787 0 
Q 787 192 790 429 
Q 794 666 794 915 
Q 794 1165 794 1376 
L 794 1709 
Q 794 1875 794 2016 
Q 794 2157 790 2288 
Q 787 2419 787 2560 
L 250 2586 
L 250 2867 
L 1094 3187 
L 1274 3155 
L 1338 2285 
L 1376 2278 
L 1376 1376 
Q 1376 1165 1376 915 
Q 1376 666 1379 429 
Q 1382 192 1382 0 
L 787 0 
z
M 1318 1798 
L 1267 2272 
L 1408 2272 
Q 1523 2560 1660 2771 
Q 1798 2982 1968 3097 
Q 2138 3213 2342 3213 
Q 2534 3213 2659 3120 
Q 2784 3027 2829 2918 
Q 2822 2720 2723 2579 
Q 2624 2438 2413 2438 
Q 2278 2438 2179 2492 
Q 2080 2547 1997 2624 
L 1850 2765 
L 2182 2790 
Q 1862 2637 1654 2377 
Q 1446 2118 1318 1798 
z
" transform="scale(0.015625)"/>
       </defs>
       <use xlink:href="#SourceSerif4-Regular-15"/>
       <use xlink:href="#SourceSerif4-Regular-24" transform="translate(63.203125 0)"/>
       <use xlink:href="#SourceSerif4-Regular-28" transform="translate(96.109375 0)"/>
       <use xlink:href="#SourceSerif4-Regular-20" transform="translate(191.609375 0)"/>
       <use xlink:href="#SourceSerif4-Regular-b2" transform="translate(246.90625 0)"/>
       <use xlink:href="#SourceSerif4-Regular-1c" transform="translate(278.90625 0)"/>
       <use xlink:href="#SourceSerif4-Regular-32" transform="translate(330.5 0)"/>
       <use xlink:href="#SourceSerif4-Regular-1c" transform="translate(412.296875 0)"/>
       <use xlink:href="#SourceSerif4-Regular-2d" transform="translate(466.1875 0)"/>
       <use xlink:href="#SourceSerif4-Regular-20" transform="translate(510.78125 0)"/>
      </g>
      <!-- (Feb→Mar) -->
      <g style="fill: #1a1a1a" transform="translate(452.042175 302.65) scale(0.1 -0.1)">
       <defs>
        <path id="SourceSerif4-Regular-7" d="M 256 0 
L 256 339 
L 1114 384 
L 1325 384 
L 2227 339 
L 2227 0 
L 256 0 
z
M 883 0 
Q 890 333 890 662 
Q 890 992 890 1325 
Q 890 1658 890 1990 
L 890 2304 
Q 890 2630 890 2963 
Q 890 3296 890 3629 
Q 890 3962 883 4288 
L 1549 4288 
Q 1549 3962 1545 3632 
Q 1542 3302 1542 2969 
Q 1542 2637 1542 2304 
L 1542 2029 
Q 1542 1683 1542 1340 
Q 1542 998 1545 665 
Q 1549 333 1549 0 
L 883 0 
z
M 1222 2003 
L 1222 2349 
L 2778 2349 
L 2778 2003 
L 1222 2003 
z
M 2630 1389 
L 2509 2074 
L 2509 2266 
L 2630 2931 
L 2970 2931 
L 2970 1389 
L 2630 1389 
z
M 256 3955 
L 256 4288 
L 1197 4288 
L 1197 3904 
L 1114 3904 
L 256 3955 
z
M 3302 3142 
L 3091 4147 
L 3354 3923 
L 1197 3923 
L 1197 4288 
L 3642 4288 
L 3693 3142 
L 3302 3142 
z
" transform="scale(0.015625)"/>
        <path id="SourceSerif4-Regular-1d" d="M 250 0 
L 250 294 
L 762 390 
Q 762 550 762 720 
Q 762 890 765 1059 
Q 768 1229 768 1376 
L 768 4122 
L 211 4218 
L 211 4486 
L 1171 4704 
L 1344 4678 
L 1331 3866 
L 1312 2560 
L 1344 2515 
L 1344 608 
L 1331 602 
L 1267 -45 
L 250 0 
z
M 2323 -77 
Q 2093 -77 1917 -3 
Q 1741 70 1600 217 
Q 1459 365 1331 582 
L 1107 582 
L 1139 998 
Q 1395 659 1641 489 
Q 1888 320 2170 320 
Q 2413 320 2611 451 
Q 2810 582 2925 857 
Q 3040 1133 3040 1555 
Q 3040 2189 2800 2502 
Q 2560 2816 2189 2816 
Q 2016 2816 1849 2745 
Q 1683 2675 1510 2528 
Q 1338 2381 1133 2144 
L 1107 2560 
L 1338 2560 
Q 1472 2765 1619 2915 
Q 1766 3066 1948 3146 
Q 2131 3226 2374 3226 
Q 2739 3226 3030 3037 
Q 3322 2848 3491 2483 
Q 3661 2118 3661 1594 
Q 3661 1075 3485 697 
Q 3309 320 3008 121 
Q 2707 -77 2323 -77 
z
" transform="scale(0.015625)"/>
        <path id="LastResortHE-Regular-50" d="M 6734 -747 
L 6734 4250 
Q 6734 4409 6659 4534 
Q 6584 4663 6456 4738 
Q 6328 4813 6172 4813 
L 1175 4813 
Q 1019 4813 891 4738 
Q 763 4663 688 4534 
Q 613 4406 613 4250 
L 613 -747 
Q 613 -903 688 -1031 
Q 763 -1159 891 -1234 
Q 1019 -1309 1175 -1309 
L 6172 -1309 
Q 6331 -1309 6456 -1234 
Q 6584 -1159 6659 -1031 
Q 6734 -903 6734 -747 
z
M 4916 4375 
Q 4916 4266 4813 4266 
L 4753 4266 
Q 4653 4266 4653 4381 
L 4719 4381 
L 4719 4369 
L 4731 4341 
L 4744 4334 
Q 4747 4331 4759 4331 
Q 4778 4331 4791 4344 
Q 4794 4353 4795 4361 
Q 4797 4369 4797 4372 
Q 4797 4406 4756 4447 
L 4728 4475 
Q 4653 4550 4653 4628 
Q 4653 4738 4756 4738 
L 4816 4738 
Q 4909 4738 4916 4619 
L 4853 4619 
Q 4847 4672 4813 4672 
Q 4769 4672 4769 4628 
Q 4769 4597 4813 4553 
L 4841 4528 
Q 4916 4463 4916 4375 
z
M 4556 4447 
Q 4556 4266 4375 4266 
L 4234 4266 
L 4234 4278 
Q 4213 4266 4031 4266 
L 4031 4738 
L 4150 4738 
L 4150 4331 
L 4191 4331 
L 4222 4344 
L 4234 4375 
L 4234 4738 
L 4353 4738 
L 4353 4331 
L 4394 4331 
L 4425 4344 
L 4438 4375 
L 4438 4738 
L 4556 4738 
L 4556 4447 
z
M 3431 4266 
L 3431 4422 
L 3419 4456 
L 3388 4469 
L 3347 4469 
L 3347 4266 
L 3231 4266 
L 3231 4738 
L 3444 4738 
Q 3547 4738 3547 4600 
Q 3547 4534 3494 4509 
L 3528 4494 
L 3547 4453 
L 3547 4266 
L 3431 4266 
z
M 3031 4266 
L 3031 4422 
L 3019 4456 
L 2988 4469 
L 2947 4469 
L 2947 4266 
L 2831 4266 
L 2831 4738 
L 3044 4738 
Q 3147 4738 3147 4600 
Q 3147 4534 3094 4509 
L 3128 4494 
L 3147 4453 
L 3147 4266 
L 3031 4266 
z
M 2628 4266 
L 2628 4469 
L 2544 4469 
L 2544 4266 
L 2428 4266 
L 2428 4631 
Q 2428 4738 2531 4738 
L 2641 4738 
Q 2741 4738 2741 4628 
L 2741 4266 
L 2628 4266 
z
M 3947 4628 
L 3947 4375 
Q 3947 4266 3844 4266 
L 3734 4266 
Q 3631 4266 3631 4369 
L 3631 4631 
Q 3631 4734 3734 4734 
L 3844 4734 
Q 3947 4734 3947 4628 
z
M 3831 4625 
L 3819 4656 
L 3788 4669 
L 3759 4656 
L 3747 4625 
L 3747 4375 
L 3759 4344 
L 3788 4331 
L 3819 4344 
L 3831 4375 
L 3831 4625 
z
M 3431 4625 
L 3419 4656 
L 3388 4669 
L 3347 4669 
L 3347 4534 
L 3388 4534 
L 3419 4547 
L 3431 4578 
L 3431 4625 
z
M 3031 4625 
L 3019 4656 
L 2988 4669 
L 2947 4669 
L 2947 4534 
L 2988 4534 
L 3019 4547 
L 3031 4578 
L 3031 4625 
z
M 2628 4625 
L 2616 4656 
L 2584 4669 
L 2556 4656 
L 2544 4625 
L 2544 4534 
L 2628 4534 
L 2628 4625 
z
M 6122 3750 
L 6122 -247 
Q 6122 -375 6063 -472 
Q 6003 -575 5900 -636 
Q 5797 -697 5672 -697 
L 1672 -697 
Q 1547 -697 1447 -634 
Q 1344 -572 1283 -472 
Q 1222 -372 1222 -247 
L 1222 3750 
Q 1222 3872 1284 3978 
Q 1347 4078 1447 4139 
Q 1547 4200 1672 4200 
L 5672 4200 
Q 5800 4200 5900 4141 
Q 6000 4081 6061 3978 
Q 6122 3875 6122 3750 
z
M 2875 3750 
L 1900 2775 
L 2681 2775 
L 2681 -147 
L 3069 -147 
L 3069 2775 
L 3850 2775 
L 2875 3750 
z
M 4663 828 
L 4663 3750 
L 4275 3750 
L 4275 828 
L 3494 828 
L 4469 -147 
L 5444 828 
L 4663 828 
z
M 6269 2431 
L 6269 2491 
Q 6269 2531 6369 2641 
Q 6469 2741 6469 2800 
L 6456 2834 
L 6425 2847 
L 6375 2847 
Q 6334 2847 6334 2794 
L 6269 2794 
Q 6284 2916 6375 2916 
L 6475 2916 
Q 6584 2916 6584 2775 
Q 6584 2731 6488 2634 
Q 6388 2534 6384 2500 
L 6584 2500 
L 6584 2431 
L 6269 2431 
z
M 759 2431 
L 759 2491 
Q 759 2531 859 2641 
Q 959 2741 959 2800 
L 947 2834 
L 916 2847 
L 869 2847 
Q 831 2847 825 2794 
L 759 2794 
Q 775 2916 869 2916 
L 969 2916 
Q 1075 2916 1075 2775 
Q 1075 2731 978 2634 
Q 878 2534 875 2500 
L 1075 2500 
L 1075 2431 
L 759 2431 
z
M 6397 1822 
L 6397 2188 
L 6347 2188 
L 6347 2250 
L 6447 2306 
L 6503 2306 
L 6503 1822 
L 6397 1822 
z
M 888 1822 
L 888 2188 
L 841 2188 
L 841 2250 
L 941 2306 
L 997 2306 
L 997 1822 
L 888 1822 
z
M 1091 1581 
L 1091 1391 
Q 1091 1316 1031 1261 
Q 972 1206 897 1206 
L 800 1206 
L 800 1275 
Q 963 1275 963 1372 
L 963 1384 
Q 950 1363 919 1363 
L 863 1363 
Q 744 1363 744 1475 
L 744 1581 
Q 744 1694 863 1694 
L 972 1694 
Q 1091 1694 1091 1581 
z
M 6406 1628 
L 6406 1488 
L 6506 1488 
L 6506 1419 
L 6406 1419 
L 6406 1213 
L 6294 1213 
L 6294 1694 
L 6556 1694 
L 6556 1628 
L 6406 1628 
z
M 966 1581 
L 950 1613 
L 919 1625 
L 884 1613 
L 872 1581 
L 872 1478 
L 884 1447 
L 919 1431 
L 950 1447 
L 966 1478 
L 966 1581 
z
M 6391 991 
L 6391 881 
L 6538 881 
L 6538 794 
L 6391 794 
L 6391 588 
L 6263 588 
L 6263 1078 
L 6581 1078 
L 6581 991 
L 6391 991 
z
M 1091 963 
L 1091 700 
Q 1091 588 978 588 
L 856 588 
Q 744 588 744 694 
L 744 969 
Q 744 1075 856 1075 
L 978 1075 
Q 1091 1075 1091 963 
z
M 966 963 
L 950 994 
L 919 1006 
L 884 994 
L 872 963 
L 872 703 
L 884 669 
L 919 656 
L 950 669 
L 966 703 
L 966 963 
z
M 4556 -1053 
Q 4556 -1234 4375 -1234 
L 4234 -1234 
L 4234 -1222 
Q 4213 -1234 4031 -1234 
L 4031 -763 
L 4150 -763 
L 4150 -1169 
L 4191 -1169 
L 4222 -1156 
L 4234 -1125 
L 4234 -763 
L 4353 -763 
L 4353 -1169 
L 4394 -1169 
L 4425 -1156 
L 4438 -1125 
L 4438 -763 
L 4556 -763 
L 4556 -1053 
z
M 3031 -1234 
L 3031 -1078 
L 3019 -1044 
L 2988 -1031 
L 2947 -1031 
L 2947 -1234 
L 2831 -1234 
L 2831 -763 
L 3044 -766 
Q 3147 -766 3147 -900 
Q 3147 -966 3094 -991 
L 3128 -1006 
L 3147 -1047 
L 3147 -1234 
L 3031 -1234 
z
M 3431 -1234 
L 3431 -1078 
L 3419 -1044 
L 3388 -1031 
L 3347 -1031 
L 3347 -1234 
L 3231 -1234 
L 3231 -763 
L 3444 -766 
Q 3547 -766 3547 -900 
Q 3547 -966 3494 -991 
L 3528 -1006 
L 3547 -1047 
L 3547 -1234 
L 3431 -1234 
z
M 2628 -1234 
L 2628 -1031 
L 2544 -1031 
L 2544 -1234 
L 2428 -1234 
L 2428 -869 
Q 2428 -766 2531 -766 
L 2641 -766 
Q 2741 -766 2741 -872 
L 2741 -1234 
L 2628 -1234 
z
M 3947 -872 
L 3947 -1125 
Q 3947 -1234 3844 -1234 
L 3734 -1234 
Q 3631 -1234 3631 -1131 
L 3631 -869 
Q 3631 -766 3734 -766 
L 3844 -766 
Q 3947 -766 3947 -872 
z
M 4916 -1125 
Q 4916 -1234 4813 -1234 
L 4753 -1234 
Q 4653 -1234 4653 -1119 
L 4719 -1119 
L 4719 -1131 
L 4731 -1159 
L 4744 -1166 
Q 4747 -1169 4759 -1169 
Q 4778 -1169 4791 -1156 
Q 4794 -1147 4795 -1139 
Q 4797 -1131 4797 -1128 
Q 4797 -1094 4756 -1053 
L 4728 -1025 
Q 4653 -950 4653 -872 
Q 4653 -766 4756 -766 
L 4816 -766 
Q 4913 -766 4916 -881 
L 4853 -881 
Q 4847 -828 4813 -828 
Q 4769 -828 4769 -872 
Q 4769 -903 4813 -947 
L 4841 -972 
Q 4916 -1038 4916 -1125 
z
M 3831 -875 
L 3819 -844 
L 3788 -831 
L 3759 -844 
L 3747 -875 
L 3747 -1125 
L 3759 -1156 
L 3788 -1169 
L 3819 -1156 
L 3831 -1125 
L 3831 -875 
z
M 3431 -875 
L 3419 -844 
L 3388 -831 
L 3347 -831 
L 3347 -966 
L 3388 -966 
L 3419 -953 
L 3431 -922 
L 3431 -875 
z
M 3031 -875 
L 3019 -844 
L 2988 -831 
L 2947 -831 
L 2947 -966 
L 2988 -966 
L 3019 -953 
L 3031 -922 
L 3031 -875 
z
M 2628 -875 
L 2616 -844 
L 2584 -831 
L 2556 -844 
L 2544 -875 
L 2544 -966 
L 2628 -966 
L 2628 -875 
z
" transform="scale(0.015625)"/>
        <path id="SourceSerif4-Regular-e" d="M 230 0 
L 230 339 
L 947 384 
L 1133 384 
L 1843 339 
L 1843 0 
L 230 0 
z
M 262 3955 
L 262 4288 
L 1088 4288 
L 1088 3904 
L 998 3904 
L 262 3955 
z
M 851 0 
L 851 4288 
L 1133 4288 
L 1235 2336 
L 1235 0 
L 851 0 
z
M 2656 0 
L 1114 3846 
L 960 3846 
L 960 4288 
L 1568 4288 
L 3027 627 
L 2944 627 
L 3258 1446 
L 4346 4288 
L 4685 4288 
L 4685 3846 
L 4512 3846 
L 4211 2989 
L 3040 0 
L 2656 0 
z
M 3846 0 
L 3846 339 
L 4627 384 
L 4941 384 
L 5741 339 
L 5741 0 
L 3846 0 
z
M 4454 0 
Q 4461 358 4464 713 
Q 4467 1069 4467 1427 
Q 4467 1786 4467 2144 
L 4467 4288 
L 5114 4288 
Q 5114 3962 5110 3632 
Q 5107 3302 5107 2969 
Q 5107 2637 5107 2304 
L 5107 1990 
Q 5107 1664 5107 1331 
Q 5107 998 5110 665 
Q 5114 333 5114 0 
L 4454 0 
z
M 4851 3904 
L 4851 4288 
L 5741 4288 
L 5741 3955 
L 4941 3904 
L 4851 3904 
z
" transform="scale(0.015625)"/>
       </defs>
       <use xlink:href="#SourceSerif4-Regular-b8"/>
       <use xlink:href="#SourceSerif4-Regular-7" transform="translate(36.203125 0)"/>
       <use xlink:href="#SourceSerif4-Regular-20" transform="translate(93.40625 0)"/>
       <use xlink:href="#SourceSerif4-Regular-1d" transform="translate(145.703125 0)"/>
       <use xlink:href="#LastResortHE-Regular-50" transform="translate(207.609375 0)"/>
       <use xlink:href="#SourceSerif4-Regular-e" transform="translate(322.359375 0)"/>
       <use xlink:href="#SourceSerif4-Regular-1c" transform="translate(413.859375 0)"/>
       <use xlink:href="#SourceSerif4-Regular-2d" transform="translate(467.75 0)"/>
       <use xlink:href="#SourceSerif4-Regular-b9" transform="translate(511.34375 0)"/>
      </g>
     </g>
    </g>
   </g>
   <g id="matplotlib.axis_2">
    <g id="ytick_1">
     <g id="line2d_4">
      <defs>
       <path id="m26e4c4b079" d="M 0 0 
L -3.5 0 
" style="stroke: #1a1a1a; stroke-width: 0.8"/>
      </defs>
      <g>
       <use xlink:href="#m26e4c4b079" x="47.75" y="271.58" style="fill: #1a1a1a; stroke: #1a1a1a; stroke-width: 0.8"/>
      </g>
     </g>
     <g id="text_4">
      <!-- 0.0 -->
      <g style="fill: #1a1a1a" transform="translate(27.148438 276.76) scale(0.1 -0.1)">
       <defs>
        <path id="SourceSerif4-Regular-87" d="M 1702 -77 
Q 1286 -77 956 150 
Q 627 378 441 851 
Q 256 1325 256 2054 
Q 256 2790 441 3270 
Q 627 3750 956 3987 
Q 1286 4224 1702 4224 
Q 2118 4224 2441 3993 
Q 2765 3763 2953 3289 
Q 3142 2816 3142 2080 
Q 3142 1350 2953 870 
Q 2765 390 2441 156 
Q 2118 -77 1702 -77 
z
M 1702 237 
Q 1901 237 2048 342 
Q 2195 448 2294 669 
Q 2394 890 2445 1235 
Q 2496 1581 2496 2067 
Q 2496 2554 2445 2902 
Q 2394 3251 2294 3475 
Q 2195 3699 2048 3804 
Q 1901 3910 1702 3910 
Q 1504 3910 1350 3804 
Q 1197 3699 1097 3478 
Q 998 3258 947 2909 
Q 896 2560 896 2067 
Q 896 1581 947 1235 
Q 998 890 1097 669 
Q 1197 448 1350 342 
Q 1504 237 1702 237 
z
" transform="scale(0.015625)"/>
        <path id="SourceSerif4-Regular-9b" d="M 966 -77 
Q 774 -77 643 57 
Q 512 192 512 378 
Q 512 570 643 704 
Q 774 838 966 838 
Q 1158 838 1292 704 
Q 1427 570 1427 378 
Q 1427 192 1292 57 
Q 1158 -77 966 -77 
z
" transform="scale(0.015625)"/>
       </defs>
       <use xlink:href="#SourceSerif4-Regular-87"/>
       <use xlink:href="#SourceSerif4-Regular-9b" transform="translate(52.90625 0)"/>
       <use xlink:href="#SourceSerif4-Regular-87" transform="translate(83.109375 0)"/>
      </g>
     </g>
    </g>
    <g id="ytick_2">
     <g id="line2d_5">
      <g>
       <use xlink:href="#m26e4c4b079" x="47.75" y="224.165455" style="fill: #1a1a1a; stroke: #1a1a1a; stroke-width: 0.8"/>
      </g>
     </g>
     <g id="text_5">
      <!-- 0.1 -->
      <g style="fill: #1a1a1a" transform="translate(27.148438 229.345455) scale(0.1 -0.1)">
       <defs>
        <path id="SourceSerif4-Regular-88" d="M 538 0 
L 538 320 
L 1530 397 
L 1939 397 
L 2912 320 
L 2912 0 
L 538 0 
z
M 1421 0 
Q 1421 282 1424 560 
Q 1427 838 1427 1116 
Q 1427 1395 1427 1677 
L 1427 3597 
L 570 3488 
L 570 3808 
L 1882 4173 
L 2054 4141 
L 2042 2758 
L 2042 1677 
Q 2042 1395 2045 1116 
Q 2048 838 2048 560 
Q 2048 282 2054 0 
L 1421 0 
z
" transform="scale(0.015625)"/>
       </defs>
       <use xlink:href="#SourceSerif4-Regular-87"/>
       <use xlink:href="#SourceSerif4-Regular-9b" transform="translate(52.90625 0)"/>
       <use xlink:href="#SourceSerif4-Regular-88" transform="translate(83.109375 0)"/>
      </g>
     </g>
    </g>
    <g id="ytick_3">
     <g id="line2d_6">
      <g>
       <use xlink:href="#m26e4c4b079" x="47.75" y="176.750909" style="fill: #1a1a1a; stroke: #1a1a1a; stroke-width: 0.8"/>
      </g>
     </g>
     <g id="text_6">
      <!-- 0.2 -->
      <g style="fill: #1a1a1a" transform="translate(27.148438 181.930909) scale(0.1 -0.1)">
       <use xlink:href="#SourceSerif4-Regular-87"/>
       <use xlink:href="#SourceSerif4-Regular-9b" transform="translate(52.90625 0)"/>
       <use xlink:href="#SourceSerif4-Regular-89" transform="translate(83.109375 0)"/>
      </g>
     </g>
    </g>
    <g id="ytick_4">
     <g id="line2d_7">
      <g>
       <use xlink:href="#m26e4c4b079" x="47.75" y="129.336364" style="fill: #1a1a1a; stroke: #1a1a1a; stroke-width: 0.8"/>
      </g>
     </g>
     <g id="text_7">
      <!-- 0.3 -->
      <g style="fill: #1a1a1a" transform="translate(27.148438 134.516364) scale(0.1 -0.1)">
       <defs>
        <path id="SourceSerif4-Regular-8a" d="M 1574 -77 
Q 1056 -77 717 137 
Q 378 352 288 787 
Q 326 890 409 960 
Q 493 1030 627 1030 
Q 794 1030 880 931 
Q 966 832 1030 582 
L 1146 109 
L 864 314 
Q 1005 269 1168 249 
Q 1331 230 1523 230 
Q 1850 230 2064 342 
Q 2278 454 2387 659 
Q 2496 864 2496 1139 
Q 2496 1408 2381 1600 
Q 2266 1792 2035 1894 
Q 1805 1997 1453 1997 
L 1158 1997 
L 1158 2336 
L 1402 2336 
Q 1734 2336 1952 2438 
Q 2170 2541 2275 2729 
Q 2381 2918 2381 3174 
Q 2381 3411 2288 3574 
Q 2195 3738 2006 3827 
Q 1818 3917 1530 3917 
Q 1370 3917 1226 3897 
Q 1082 3878 934 3846 
L 1242 4026 
L 1126 3578 
Q 1069 3354 985 3258 
Q 902 3162 736 3162 
Q 602 3162 522 3232 
Q 442 3302 416 3411 
Q 474 3674 646 3856 
Q 819 4038 1081 4131 
Q 1344 4224 1670 4224 
Q 2061 4224 2361 4102 
Q 2662 3981 2835 3760 
Q 3008 3539 3008 3238 
Q 3008 2944 2857 2717 
Q 2707 2490 2444 2349 
Q 2182 2208 1830 2157 
L 1830 2176 
Q 2246 2144 2531 2019 
Q 2816 1894 2963 1673 
Q 3110 1453 3110 1126 
Q 3110 794 2928 522 
Q 2746 250 2400 86 
Q 2054 -77 1574 -77 
z
" transform="scale(0.015625)"/>
       </defs>
       <use xlink:href="#SourceSerif4-Regular-87"/>
       <use xlink:href="#SourceSerif4-Regular-9b" transform="translate(52.90625 0)"/>
       <use xlink:href="#SourceSerif4-Regular-8a" transform="translate(83.109375 0)"/>
      </g>
     </g>
    </g>
    <g id="ytick_5">
     <g id="line2d_8">
      <g>
       <use xlink:href="#m26e4c4b079" x="47.75" y="81.921818" style="fill: #1a1a1a; stroke: #1a1a1a; stroke-width: 0.8"/>
      </g>
     </g>
     <g id="text_8">
      <!-- 0.4 -->
      <g style="fill: #1a1a1a" transform="translate(27.148438 87.101818) scale(0.1 -0.1)">
       <defs>
        <path id="SourceSerif4-Regular-8b" d="M 1997 -96 
L 1997 1152 
L 2016 1248 
L 2016 3616 
L 1850 3616 
L 2099 3738 
L 1312 2470 
L 435 1338 
L 506 1587 
L 506 1414 
L 3277 1414 
L 3277 973 
L 147 973 
L 147 1357 
L 2150 4186 
L 2598 4186 
L 2598 -96 
L 1997 -96 
z
" transform="scale(0.015625)"/>
       </defs>
       <use xlink:href="#SourceSerif4-Regular-87"/>
       <use xlink:href="#SourceSerif4-Regular-9b" transform="translate(52.90625 0)"/>
       <use xlink:href="#SourceSerif4-Regular-8b" transform="translate(83.109375 0)"/>
      </g>
     </g>
    </g>
    <g id="ytick_6">
     <g id="line2d_9">
      <g>
       <use xlink:href="#m26e4c4b079" x="47.75" y="34.507273" style="fill: #1a1a1a; stroke: #1a1a1a; stroke-width: 0.8"/>
      </g>
     </g>
     <g id="text_9">
      <!-- 0.5 -->
      <g style="fill: #1a1a1a" transform="translate(27.148438 39.687273) scale(0.1 -0.1)">
       <defs>
        <path id="SourceSerif4-Regular-8c" d="M 1542 -77 
Q 1004 -77 681 147 
Q 358 371 262 768 
Q 300 883 386 956 
Q 473 1030 608 1030 
Q 761 1030 857 940 
Q 953 851 1017 595 
L 1132 134 
L 838 358 
Q 1011 294 1180 268 
Q 1350 243 1516 243 
Q 1830 243 2047 361 
Q 2265 480 2377 694 
Q 2489 909 2489 1210 
Q 2489 1517 2380 1728 
Q 2272 1939 2060 2044 
Q 1849 2150 1548 2150 
Q 1324 2150 1161 2128 
Q 998 2106 851 2054 
L 608 2157 
L 748 4147 
L 2982 4147 
L 2982 3603 
L 870 3603 
L 1088 3917 
L 979 2272 
L 876 2304 
Q 1043 2426 1247 2486 
Q 1452 2547 1696 2547 
Q 2124 2547 2444 2400 
Q 2764 2253 2940 1965 
Q 3116 1677 3116 1261 
Q 3116 851 2918 550 
Q 2720 250 2361 86 
Q 2003 -77 1542 -77 
z
" transform="scale(0.015625)"/>
       </defs>
       <use xlink:href="#SourceSerif4-Regular-87"/>
       <use xlink:href="#SourceSerif4-Regular-9b" transform="translate(52.90625 0)"/>
       <use xlink:href="#SourceSerif4-Regular-8c" transform="translate(83.109375 0)"/>
      </g>
     </g>
    </g>
    <g id="text_10">
     <!-- Precision@50 -->
     <g style="fill: #1a1a1a" transform="translate(19.798438 172.975938) rotate(-90) scale(0.1 -0.1)">
      <defs>
       <path id="SourceSerif4-Regular-11" d="M 243 0 
L 243 339 
L 1101 384 
L 1312 384 
L 2214 339 
L 2214 0 
L 243 0 
z
M 870 0 
Q 877 333 877 662 
Q 877 992 877 1325 
Q 877 1658 877 1990 
L 877 2304 
Q 877 2637 877 2966 
Q 877 3296 877 3629 
Q 877 3962 870 4288 
L 1536 4288 
Q 1536 3962 1533 3632 
Q 1530 3302 1530 2969 
Q 1530 2637 1530 2304 
L 1530 1894 
Q 1530 1594 1530 1283 
Q 1530 973 1533 653 
Q 1536 333 1536 0 
L 870 0 
z
M 1222 1677 
L 1222 2022 
L 1907 2022 
Q 2342 2022 2604 2140 
Q 2867 2259 2985 2480 
Q 3104 2701 3104 3002 
Q 3104 3469 2832 3705 
Q 2560 3942 1946 3942 
L 1274 3942 
L 1274 4288 
L 2029 4288 
Q 2605 4288 2992 4131 
Q 3379 3974 3577 3689 
Q 3776 3405 3776 3014 
Q 3776 2637 3577 2333 
Q 3379 2029 2963 1853 
Q 2547 1677 1888 1677 
L 1222 1677 
z
M 243 3955 
L 243 4288 
L 1133 4288 
L 1133 3904 
L 1050 3904 
L 243 3955 
z
" transform="scale(0.015625)"/>
       <path id="SourceSerif4-Regular-2e" d="M 1389 -77 
Q 1069 -77 806 -16 
Q 544 45 333 147 
L 307 922 
L 685 922 
L 858 141 
L 550 141 
L 550 461 
Q 704 358 921 297 
Q 1139 237 1395 237 
Q 1651 237 1808 307 
Q 1965 378 2038 496 
Q 2112 614 2112 755 
Q 2112 966 1965 1088 
Q 1818 1210 1498 1312 
L 1286 1389 
Q 986 1485 774 1609 
Q 563 1734 451 1907 
Q 339 2080 339 2317 
Q 339 2573 483 2781 
Q 627 2989 899 3107 
Q 1171 3226 1542 3226 
Q 1824 3226 2073 3162 
Q 2323 3098 2509 2995 
L 2496 2272 
L 2125 2272 
L 1984 2970 
L 2246 2970 
L 2246 2707 
Q 2093 2810 1917 2858 
Q 1741 2906 1542 2906 
Q 1216 2906 1059 2778 
Q 902 2650 902 2451 
Q 902 2253 1040 2141 
Q 1178 2029 1510 1914 
L 1677 1856 
Q 2016 1747 2243 1606 
Q 2470 1466 2579 1290 
Q 2688 1114 2688 877 
Q 2688 608 2534 393 
Q 2381 179 2093 51 
Q 1805 -77 1389 -77 
z
" transform="scale(0.015625)"/>
       <path id="SourceSerif4-Regular-c8" d="M 2163 307 
Q 1971 307 1808 396 
Q 1645 486 1545 675 
Q 1446 864 1446 1158 
Q 1446 1434 1529 1709 
Q 1613 1984 1763 2224 
Q 1914 2464 2106 2649 
Q 2298 2835 2512 2940 
Q 2726 3046 2950 3046 
Q 3142 3046 3299 2960 
Q 3456 2874 3603 2643 
L 3418 2381 
Q 3322 2566 3200 2646 
Q 3078 2726 2925 2726 
Q 2746 2726 2566 2611 
Q 2387 2496 2243 2291 
Q 2099 2086 2012 1827 
Q 1926 1568 1926 1274 
Q 1926 986 2038 842 
Q 2150 698 2374 698 
Q 2560 698 2739 810 
Q 2918 922 3187 1171 
L 3213 954 
L 3098 954 
Q 2976 774 2835 627 
Q 2694 480 2531 393 
Q 2368 307 2163 307 
z
M 3725 307 
Q 3507 307 3353 384 
Q 3200 461 3120 595 
Q 3040 730 3034 890 
L 2995 941 
L 3341 2739 
L 3661 3027 
L 3853 2976 
L 3488 1139 
Q 3456 960 3485 845 
Q 3514 730 3597 675 
Q 3680 621 3814 621 
Q 3994 621 4154 717 
Q 4314 813 4438 995 
Q 4563 1178 4640 1456 
Q 4717 1734 4717 2106 
Q 4717 2669 4493 3078 
Q 4269 3488 3875 3709 
Q 3482 3930 2963 3930 
Q 2458 3930 2032 3722 
Q 1606 3514 1296 3155 
Q 986 2797 816 2336 
Q 646 1875 646 1363 
Q 646 838 806 451 
Q 966 64 1244 -192 
Q 1523 -448 1881 -573 
Q 2240 -698 2630 -698 
Q 2931 -698 3193 -640 
Q 3456 -582 3648 -493 
L 3757 -717 
Q 3482 -858 3165 -925 
Q 2848 -992 2515 -992 
Q 2042 -992 1629 -848 
Q 1216 -704 902 -416 
Q 589 -128 409 304 
Q 230 736 230 1306 
Q 230 1805 364 2243 
Q 499 2682 748 3046 
Q 998 3411 1344 3673 
Q 1690 3936 2106 4080 
Q 2522 4224 2995 4224 
Q 3642 4224 4115 3961 
Q 4589 3699 4848 3219 
Q 5107 2739 5107 2086 
Q 5107 1664 4988 1331 
Q 4870 998 4665 768 
Q 4461 538 4217 422 
Q 3974 307 3725 307 
z
" transform="scale(0.015625)"/>
      </defs>
      <use xlink:href="#SourceSerif4-Regular-11"/>
      <use xlink:href="#SourceSerif4-Regular-2d" transform="translate(62.09375 0)"/>
      <use xlink:href="#SourceSerif4-Regular-20" transform="translate(106.6875 0)"/>
      <use xlink:href="#SourceSerif4-Regular-1e" transform="translate(159.984375 0)"/>
      <use xlink:href="#SourceSerif4-Regular-24" transform="translate(211.984375 0)"/>
      <use xlink:href="#SourceSerif4-Regular-2e" transform="translate(244.890625 0)"/>
      <use xlink:href="#SourceSerif4-Regular-24" transform="translate(291.390625 0)"/>
      <use xlink:href="#SourceSerif4-Regular-2a" transform="translate(324.296875 0)"/>
      <use xlink:href="#SourceSerif4-Regular-29" transform="translate(382.203125 0)"/>
      <use xlink:href="#SourceSerif4-Regular-c8" transform="translate(446.5 0)"/>
      <use xlink:href="#SourceSerif4-Regular-8c" transform="translate(529.90625 0)"/>
      <use xlink:href="#SourceSerif4-Regular-87" transform="translate(582.8125 0)"/>
     </g>
    </g>
   </g>
   <g id="line2d_10">
    <path d="M 47.75 172.109014 
L 565.2 172.109014 
" clip-path="url(#p9ca8274056)" style="fill: none; stroke-dasharray: 3.7,1.6; stroke-dashoffset: 0; stroke: #1a1a1a"/>
   </g>
   <g id="patch_9">
    <path d="M 47.75 271.58 
L 47.75 10.8 
" style="fill: none; stroke: #1a1a1a; stroke-width: 0.8; stroke-linejoin: miter; stroke-linecap: square"/>
   </g>
   <g id="patch_10">
    <path d="M 47.75 271.58 
L 565.2 271.58 
" style="fill: none; stroke: #1a1a1a; stroke-width: 0.8; stroke-linejoin: miter; stroke-linecap: square"/>
   </g>
   <g id="legend_1">
    <g id="line2d_11">
     <path d="M 411.83125 23.488 
L 419.83125 23.488 
L 427.83125 23.488 
" style="fill: none; stroke-dasharray: 3.7,1.6; stroke-dashoffset: 0; stroke: #1a1a1a"/>
    </g>
    <g id="text_11">
     <!-- Slice base rate (0.21) -->
     <g style="fill: #1a1a1a" transform="translate(434.23125 26.288) scale(0.08 -0.08)">
      <use xlink:href="#SourceSerif4-Regular-14"/>
      <use xlink:href="#SourceSerif4-Regular-27" transform="translate(53.40625 0)"/>
      <use xlink:href="#SourceSerif4-Regular-24" transform="translate(86.3125 0)"/>
      <use xlink:href="#SourceSerif4-Regular-1e" transform="translate(119.21875 0)"/>
      <use xlink:href="#SourceSerif4-Regular-20" transform="translate(171.21875 0)"/>
      <use xlink:href="#SourceSerif4-Regular-1" transform="translate(224.515625 0)"/>
      <use xlink:href="#SourceSerif4-Regular-1d" transform="translate(248.21875 0)"/>
      <use xlink:href="#SourceSerif4-Regular-1c" transform="translate(310.125 0)"/>
      <use xlink:href="#SourceSerif4-Regular-2e" transform="translate(364.21875 0)"/>
      <use xlink:href="#SourceSerif4-Regular-20" transform="translate(410.71875 0)"/>
      <use xlink:href="#SourceSerif4-Regular-1" transform="translate(464.015625 0)"/>
      <use xlink:href="#SourceSerif4-Regular-2d" transform="translate(487.71875 0)"/>
      <use xlink:href="#SourceSerif4-Regular-1c" transform="translate(532.3125 0)"/>
      <use xlink:href="#SourceSerif4-Regular-2f" transform="translate(586.40625 0)"/>
      <use xlink:href="#SourceSerif4-Regular-20" transform="translate(622.3125 0)"/>
      <use xlink:href="#SourceSerif4-Regular-1" transform="translate(675.609375 0)"/>
      <use xlink:href="#SourceSerif4-Regular-b8" transform="translate(699.3125 0)"/>
      <use xlink:href="#SourceSerif4-Regular-87" transform="translate(735.515625 0)"/>
      <use xlink:href="#SourceSerif4-Regular-9b" transform="translate(788.421875 0)"/>
      <use xlink:href="#SourceSerif4-Regular-89" transform="translate(818.625 0)"/>
      <use xlink:href="#SourceSerif4-Regular-88" transform="translate(871.53125 0)"/>
      <use xlink:href="#SourceSerif4-Regular-b9" transform="translate(924.4375 0)"/>
     </g>
    </g>
    <g id="patch_11">
     <path d="M 411.83125 41.256 
L 427.83125 41.256 
L 427.83125 35.656 
L 411.83125 35.656 
z
" style="fill: #3b4cca"/>
    </g>
    <g id="text_12">
     <!-- Random Forest (honest features) -->
     <g style="fill: #1a1a1a" transform="translate(434.23125 41.256) scale(0.08 -0.08)">
      <defs>
       <path id="SourceSerif4-Regular-13" d="M 243 0 
L 243 339 
L 1101 384 
L 1306 384 
L 2163 339 
L 2163 0 
L 243 0 
z
M 870 0 
Q 877 333 877 662 
Q 877 992 877 1325 
Q 877 1658 877 1990 
L 877 2304 
Q 877 2637 877 2966 
Q 877 3296 877 3629 
Q 877 3962 870 4288 
L 1536 4288 
Q 1536 3955 1533 3619 
Q 1530 3283 1530 2944 
Q 1530 2605 1530 2240 
L 1530 2022 
Q 1530 1677 1530 1337 
Q 1530 998 1533 665 
Q 1536 333 1536 0 
L 870 0 
z
M 3782 -58 
Q 3462 -58 3289 54 
Q 3117 166 3040 442 
L 2803 1325 
Q 2739 1587 2633 1724 
Q 2528 1862 2371 1913 
Q 2214 1965 1965 1965 
L 1222 1965 
L 1222 2291 
L 2080 2291 
Q 2432 2291 2662 2403 
Q 2893 2515 3001 2713 
Q 3110 2912 3110 3162 
Q 3110 3552 2870 3747 
Q 2630 3942 2118 3942 
L 1274 3942 
L 1274 4288 
L 2176 4288 
Q 2950 4288 3369 3993 
Q 3789 3699 3789 3181 
Q 3789 2874 3616 2646 
Q 3443 2419 3139 2288 
Q 2835 2157 2445 2131 
L 2445 2093 
Q 2656 2086 2819 2041 
Q 2982 1997 3100 1904 
Q 3219 1811 3308 1664 
Q 3398 1517 3462 1299 
L 3795 205 
L 3558 390 
L 4307 326 
L 4307 0 
Q 4237 -13 4153 -25 
Q 4070 -38 3977 -48 
Q 3885 -58 3782 -58 
z
M 243 3955 
L 243 4288 
L 1133 4288 
L 1133 3904 
L 1050 3904 
L 243 3955 
z
" transform="scale(0.015625)"/>
       <path id="SourceSerif4-Regular-21" d="M 250 0 
L 250 307 
L 934 371 
L 1216 371 
L 1978 307 
L 1978 0 
L 250 0 
z
M 774 0 
Q 781 230 781 460 
Q 781 691 784 921 
Q 787 1152 787 1376 
L 787 2778 
L 237 2778 
L 237 3078 
L 960 3181 
L 794 3002 
L 800 3110 
Q 832 3450 893 3690 
Q 954 3930 1066 4112 
Q 1178 4294 1344 4454 
Q 1523 4621 1750 4697 
Q 1978 4774 2221 4774 
Q 2464 4774 2637 4688 
Q 2810 4602 2867 4422 
Q 2861 4301 2765 4211 
Q 2669 4122 2490 4122 
Q 2336 4122 2217 4192 
Q 2099 4262 1965 4365 
L 1709 4557 
L 1811 4550 
L 1837 4550 
L 1926 4570 
Q 1830 4544 1766 4505 
Q 1702 4467 1638 4365 
Q 1568 4250 1510 4122 
Q 1453 3994 1417 3830 
Q 1382 3667 1369 3449 
Q 1357 3232 1363 2944 
L 1363 1376 
Q 1363 1152 1366 921 
Q 1370 691 1370 460 
Q 1370 230 1376 0 
L 774 0 
z
M 1101 2778 
L 1101 3149 
L 2195 3149 
L 2195 2778 
L 1101 2778 
z
" transform="scale(0.015625)"/>
      </defs>
      <use xlink:href="#SourceSerif4-Regular-13"/>
      <use xlink:href="#SourceSerif4-Regular-1c" transform="translate(69 0)"/>
      <use xlink:href="#SourceSerif4-Regular-29" transform="translate(122.890625 0)"/>
      <use xlink:href="#SourceSerif4-Regular-1f" transform="translate(187.1875 0)"/>
      <use xlink:href="#SourceSerif4-Regular-2a" transform="translate(248.59375 0)"/>
      <use xlink:href="#SourceSerif4-Regular-28" transform="translate(306.5 0)"/>
      <use xlink:href="#SourceSerif4-Regular-1" transform="translate(402 0)"/>
      <use xlink:href="#SourceSerif4-Regular-7" transform="translate(425.703125 0)"/>
      <use xlink:href="#SourceSerif4-Regular-2a" transform="translate(482.90625 0)"/>
      <use xlink:href="#SourceSerif4-Regular-2d" transform="translate(540.8125 0)"/>
      <use xlink:href="#SourceSerif4-Regular-20" transform="translate(585.40625 0)"/>
      <use xlink:href="#SourceSerif4-Regular-2e" transform="translate(638.703125 0)"/>
      <use xlink:href="#SourceSerif4-Regular-2f" transform="translate(685.203125 0)"/>
      <use xlink:href="#SourceSerif4-Regular-1" transform="translate(721.109375 0)"/>
      <use xlink:href="#SourceSerif4-Regular-b8" transform="translate(744.8125 0)"/>
      <use xlink:href="#SourceSerif4-Regular-23" transform="translate(781.015625 0)"/>
      <use xlink:href="#SourceSerif4-Regular-2a" transform="translate(845.109375 0)"/>
      <use xlink:href="#SourceSerif4-Regular-29" transform="translate(903.015625 0)"/>
      <use xlink:href="#SourceSerif4-Regular-20" transform="translate(967.3125 0)"/>
      <use xlink:href="#SourceSerif4-Regular-2e" transform="translate(1020.609375 0)"/>
      <use xlink:href="#SourceSerif4-Regular-2f" transform="translate(1067.109375 0)"/>
      <use xlink:href="#SourceSerif4-Regular-1" transform="translate(1103.015625 0)"/>
      <use xlink:href="#SourceSerif4-Regular-21" transform="translate(1126.71875 0)"/>
      <use xlink:href="#SourceSerif4-Regular-20" transform="translate(1162.421875 0)"/>
      <use xlink:href="#SourceSerif4-Regular-1c" transform="translate(1214.71875 0)"/>
      <use xlink:href="#SourceSerif4-Regular-2f" transform="translate(1268.8125 0)"/>
      <use xlink:href="#SourceSerif4-Regular-30" transform="translate(1304.71875 0)"/>
      <use xlink:href="#SourceSerif4-Regular-2d" transform="translate(1367.515625 0)"/>
      <use xlink:href="#SourceSerif4-Regular-20" transform="translate(1412.109375 0)"/>
      <use xlink:href="#SourceSerif4-Regular-2e" transform="translate(1465.40625 0)"/>
      <use xlink:href="#SourceSerif4-Regular-b9" transform="translate(1510.90625 0)"/>
     </g>
    </g>
    <g id="patch_12">
     <path d="M 411.83125 56.224 
L 427.83125 56.224 
L 427.83125 50.624 
L 411.83125 50.624 
z
" style="fill: #b7b4ac"/>
    </g>
    <g id="text_13">
     <!-- w04 CTR-headroom baseline -->
     <g style="fill: #1a1a1a" transform="translate(434.23125 56.224) scale(0.08 -0.08)">
      <defs>
       <path id="SourceSerif4-Regular-4" d="M 2566 -96 
Q 2074 -96 1658 57 
Q 1242 211 941 502 
Q 640 794 473 1206 
Q 307 1619 307 2138 
Q 307 2650 480 3062 
Q 653 3475 963 3772 
Q 1274 4070 1690 4230 
Q 2106 4390 2592 4390 
Q 2950 4390 3283 4313 
Q 3616 4237 3872 4096 
L 3898 3149 
L 3494 3149 
L 3315 4077 
L 3744 4032 
L 3744 3635 
Q 3501 3827 3219 3926 
Q 2938 4026 2630 4026 
Q 2182 4026 1814 3811 
Q 1446 3597 1228 3181 
Q 1011 2765 1011 2150 
Q 1011 1536 1216 1117 
Q 1421 698 1779 483 
Q 2138 269 2598 269 
Q 2957 269 3264 365 
Q 3571 461 3814 640 
L 3814 256 
L 3386 211 
L 3565 1158 
L 3968 1158 
L 3942 198 
Q 3699 70 3353 -13 
Q 3008 -96 2566 -96 
z
" transform="scale(0.015625)"/>
      </defs>
      <use xlink:href="#SourceSerif4-Regular-32"/>
      <use xlink:href="#SourceSerif4-Regular-87" transform="translate(83.59375 0)"/>
      <use xlink:href="#SourceSerif4-Regular-8b" transform="translate(136.5 0)"/>
      <use xlink:href="#SourceSerif4-Regular-1" transform="translate(189.40625 0)"/>
      <use xlink:href="#SourceSerif4-Regular-4" transform="translate(213.109375 0)"/>
      <use xlink:href="#SourceSerif4-Regular-15" transform="translate(279.3125 0)"/>
      <use xlink:href="#SourceSerif4-Regular-13" transform="translate(342.515625 0)"/>
      <use xlink:href="#SourceSerif4-Regular-b2" transform="translate(410.515625 0)"/>
      <use xlink:href="#SourceSerif4-Regular-23" transform="translate(442.515625 0)"/>
      <use xlink:href="#SourceSerif4-Regular-20" transform="translate(506.609375 0)"/>
      <use xlink:href="#SourceSerif4-Regular-1c" transform="translate(558.90625 0)"/>
      <use xlink:href="#SourceSerif4-Regular-1f" transform="translate(613 0)"/>
      <use xlink:href="#SourceSerif4-Regular-2d" transform="translate(674.40625 0)"/>
      <use xlink:href="#SourceSerif4-Regular-2a" transform="translate(719 0)"/>
      <use xlink:href="#SourceSerif4-Regular-2a" transform="translate(776.90625 0)"/>
      <use xlink:href="#SourceSerif4-Regular-28" transform="translate(834.8125 0)"/>
      <use xlink:href="#SourceSerif4-Regular-1" transform="translate(930.3125 0)"/>
      <use xlink:href="#SourceSerif4-Regular-1d" transform="translate(954.015625 0)"/>
      <use xlink:href="#SourceSerif4-Regular-1c" transform="translate(1015.921875 0)"/>
      <use xlink:href="#SourceSerif4-Regular-2e" transform="translate(1070.015625 0)"/>
      <use xlink:href="#SourceSerif4-Regular-20" transform="translate(1116.515625 0)"/>
      <use xlink:href="#SourceSerif4-Regular-27" transform="translate(1168.8125 0)"/>
      <use xlink:href="#SourceSerif4-Regular-24" transform="translate(1201.71875 0)"/>
      <use xlink:href="#SourceSerif4-Regular-29" transform="translate(1234.625 0)"/>
      <use xlink:href="#SourceSerif4-Regular-20" transform="translate(1298.921875 0)"/>
     </g>
    </g>
   </g>
  </g>
 </g>
 <defs>
  <clipPath id="p9ca8274056">
   <rect x="47.75" y="10.8" width="517.45" height="260.78"/>
  </clipPath>
 </defs>
</svg>
